<?xml version="1.0" encoding="UTF-8" standalone="no"?>
<!DOCTYPE svg PUBLIC "-//W3C//DTD SVG 1.1//EN" "http://www.w3.org/Graphics/SVG/1.1/DTD/svg11.dtd">
<svg width="100%" height="100%" viewBox="0 0 1081 1008" version="1.1" xmlns="http://www.w3.org/2000/svg" xmlns:xlink="http://www.w3.org/1999/xlink" xml:space="preserve" xmlns:serif="http://www.serif.com/" style="fill-rule:evenodd;clip-rule:evenodd;stroke-linejoin:round;stroke-miterlimit:2;">
    <g transform="matrix(1,0,0,1,-1134,-1420)">
        <g id="icon" transform="matrix(0.789551,0,0,1.63449,-11468,-14055.6)">
            <rect x="15962" y="9468.41" width="1367.87" height="615.971" style="fill:none;"/>
            <g transform="matrix(5.36597,0,0,2.59206,-77323.6,-27391.7)">
                <g transform="matrix(1,0,0,1,10333.3,5246.75)">
                    <path d="M7188.68,9117.63L7207.28,9117.63L7207.28,9148.88L7167.61,9148.88C7138.43,9148.88 7116.68,9141.32 7113.74,9115.52C7111.1,9092.24 7126.22,9075.84 7158.7,9078.29C7167.21,9078.93 7174.01,9080.61 7179.65,9082.58C7183.16,9083.84 7185.47,9087.21 7185.4,9090.94C7185.35,9095.38 7185.23,9101.36 7185.15,9105.83C7185.13,9106.94 7184.47,9107.94 7183.46,9108.41C7182.45,9108.88 7181.26,9108.74 7180.4,9108.04C7173.67,9102.62 7160.78,9093.59 7149.5,9093.59C7142.83,9093.59 7137.42,9099 7137.42,9105.67L7137.42,9105.67C7137.42,9112.34 7142.83,9117.75 7149.5,9117.75L7188.68,9117.75L7188.68,9117.63Z" style="fill:rgb(225,82,193);"/>
                </g>
                <g transform="matrix(1,0,0,1,10333.3,5246.75)">
                    <path d="M7189.02,9086.11C7189.18,9076.53 7190.03,9070.07 7185.69,9066.78C7178.04,9060.99 7171.73,9064.14 7166.25,9070.09C7162.92,9073.7 7157.66,9073.85 7157.66,9066.69C7157.66,9056.66 7161.65,9046.5 7171.53,9040.16C7177.37,9036.42 7183.73,9036.04 7190.76,9036.04C7201.48,9036.04 7209.7,9042.49 7214.38,9052.57C7218.22,9060.83 7219.75,9073.05 7219.75,9085.43L7219.75,9139.71C7219.75,9144.78 7215.65,9148.88 7210.58,9148.88C7206.54,9148.88 7201.8,9148.88 7197.74,9148.88C7195.3,9148.88 7192.95,9147.9 7191.23,9146.17C7189.51,9144.43 7188.56,9142.08 7188.58,9139.64C7188.72,9122.18 7189.02,9086.11 7189.02,9086.11Z" style="fill:rgb(232,132,233);"/>
                </g>
                <g transform="matrix(0.866781,0,0,0.866781,11110.8,4341.35)">
                    <path d="M7437.25,11555.7C7437.25,11554.5 7437.97,11553.3 7439.11,11552.7C7440.25,11552.1 7441.61,11552.3 7442.63,11553C7446.34,11556 7450.65,11560.4 7454.64,11566.4C7463.03,11579.1 7461.78,11592.8 7455.39,11596.8C7451.53,11599.3 7447.49,11599.6 7442.45,11596.8C7439.27,11595.2 7437.28,11591.9 7437.28,11588.3C7437.25,11578.2 7437.25,11555.7 7437.25,11555.7L7437.25,11555.7Z" style="fill:rgb(225,82,193);"/>
                </g>
            </g>
        </g>
    </g>
</svg>
